<svg
    width="40"
    height="40"
    viewBox="0 0 40 40"
    fill="none"
    xmlns="http://www.w3.org/2000/svg">
    <g clip-path="url(#clip0_6206_80)">
        <path
            d="M20 40C31.0457 40 40 31.0457 40 20C40 8.9543 31.0457 0 20 0C8.9543 0 0 8.9543 0 20C0 31.0457 8.9543 40 20 40Z"
            fill="url(#paint0_linear_6206_80)" />
        <path
            opacity="0.24"
            fill-rule="evenodd"
            clip-rule="evenodd"
            d="M27.7 10.0454H12.2728C10.6661 10.0454 9.36367 11.3479 9.36367 12.9545V27.3818C9.36367 28.9884 10.6661 30.2909 12.2728 30.2909H27.7C29.3067 30.2909 30.6091 28.9884 30.6091 27.3818V12.9545C30.6091 11.3479 29.3067 10.0454 27.7 10.0454ZM12.2728 9.77271C10.5155 9.77271 9.09094 11.1973 9.09094 12.9545V27.3818C9.09094 29.1391 10.5155 30.5636 12.2728 30.5636H27.7C29.4573 30.5636 30.8819 29.1391 30.8819 27.3818V12.9545C30.8819 11.1973 29.4573 9.77271 27.7 9.77271H12.2728Z"
            fill="white" />
        <path
            fill-rule="evenodd"
            clip-rule="evenodd"
            d="M14.4511 30.5527C14.869 30.5482 15.2868 30.5439 15.7041 30.5439C15.7992 30.5439 15.8945 30.5484 15.9896 30.5579H22.8642C23.4351 30.5579 24.0059 30.559 24.5768 30.56C25.7184 30.5622 26.8606 30.5642 28.0023 30.5579H28.026C29.615 30.5436 30.89 29.2496 30.8806 27.6606V24.8775C30.8806 24.8601 30.8817 24.8388 30.883 24.8163C30.887 24.7464 30.8916 24.6665 30.8615 24.6681C30.7758 24.673 30.6408 24.7035 30.5932 24.7511C30.2284 24.9943 29.8746 25.26 29.5207 25.5256C28.8131 26.057 28.1055 26.5882 27.3094 26.9403C24.2115 27.9854 21.4716 28.0349 18.5634 27.3323C18.4043 27.2745 18.3285 27.281 18.194 27.2925C18.1074 27.2999 17.9963 27.3094 17.8228 27.3051C17.8018 27.306 17.78 27.3066 17.7573 27.3073C17.4704 27.3162 17.0536 27.3292 16.5557 27.6321C15.3902 27.9889 13.8093 28.0349 12.9924 27.9128C12.9958 27.9205 12.9981 27.9273 12.9997 27.9336L12.9973 27.9284L12.9924 27.9177C12.981 27.9049 12.9667 27.8936 12.9528 27.8827C12.9085 27.8477 12.8687 27.8164 12.9448 27.7512C12.967 27.737 12.9892 27.7221 13.0115 27.7073C13.0558 27.6777 13.1002 27.6481 13.1446 27.6228C13.7678 27.2183 14.353 26.7759 14.7384 26.1242C15.2623 25.489 15.0194 25.2412 14.5565 24.7691L14.5391 24.7512C12.2837 22.45 11.6201 20.008 11.8554 16.7233C12.136 14.9202 12.9638 13.3693 14.1579 12.0182C14.8811 11.2 15.7422 10.5386 16.6842 9.98679C16.6977 9.97815 16.7136 9.97106 16.7298 9.96388C16.7758 9.94342 16.8246 9.92169 16.8316 9.85833C16.8372 9.80824 16.7568 9.79169 16.7283 9.79169C16.1914 9.79169 15.6615 9.78688 15.134 9.78215C14.0863 9.77269 13.0482 9.76324 11.985 9.79169C10.4578 9.83451 9.06604 10.8863 9.09128 12.7604C9.09755 16.0718 9.09546 19.3811 9.09337 22.6896C9.09228 24.3436 9.09128 25.9974 9.09128 27.6513C9.09128 29.188 10.2664 30.4772 11.803 30.5391C12.6845 30.5713 13.5682 30.5621 14.4511 30.5527ZM13.0527 28.0217L13.0637 28.0366C13.1435 28.1074 13.2226 28.1789 13.3014 28.2509C13.225 28.1778 13.1462 28.1048 13.0637 28.0317L13.0527 28.0217ZM15.4882 30.307C15.4616 30.2895 15.4362 30.2709 15.4139 30.2487L15.4076 30.2473L15.4139 30.2536C15.4362 30.2737 15.4616 30.2908 15.4882 30.307ZM16.4464 19.8971C16.6893 19.8971 16.9273 19.8965 17.1618 19.896C17.621 19.895 18.0671 19.8939 18.5111 19.8971C18.8869 19.9018 19.0915 20.0588 19.1296 20.3585C19.1724 20.7343 18.9536 20.9865 18.5444 20.9912C17.9665 20.9984 17.3913 20.9975 16.8147 20.9966C16.6224 20.9963 16.4298 20.9961 16.237 20.9961C16.173 20.9961 16.1094 20.9968 16.0459 20.9976C15.8877 20.9995 15.7306 21.0014 15.571 20.9912C15.295 20.977 15.0238 20.9199 14.8906 20.6344C14.7575 20.3491 14.8526 20.0921 15.0334 19.859C15.766 18.9265 16.5035 17.9893 17.2408 17.0569C17.2836 16.9998 17.3265 16.9427 17.3693 16.8903C17.3343 16.8308 17.2888 16.8357 17.2446 16.8406C17.2287 16.8423 17.213 16.8441 17.198 16.8428C16.9411 16.8404 16.683 16.8404 16.4249 16.8404C16.1668 16.8404 15.9087 16.8404 15.6518 16.8381C15.5329 16.8381 15.414 16.8238 15.2998 16.8C15.0286 16.7381 14.8621 16.467 14.9239 16.2005C14.9667 16.0197 15.1095 15.8722 15.2903 15.8294C15.4045 15.8009 15.5234 15.7866 15.6424 15.7866C16.4892 15.7819 17.3407 15.7819 18.1876 15.7866C18.3398 15.7819 18.4873 15.8009 18.6347 15.839C18.9583 15.9483 19.0963 16.2481 18.9678 16.5621C18.8536 16.8332 18.6728 17.0663 18.4921 17.2995C17.8689 18.094 17.2456 18.8837 16.6224 19.6687C16.57 19.7305 16.5225 19.7924 16.4464 19.8971ZM21.965 17.3943C22.0792 17.2469 22.1982 17.1089 22.3932 17.0708C22.769 16.9947 23.1211 17.2373 23.1258 17.618C23.1401 18.5694 23.1354 19.521 23.1258 20.4724C23.1258 20.7199 22.9641 20.9387 22.731 21.0101C22.4931 21.1004 22.2219 21.0291 22.0649 20.8245C21.9841 20.7246 21.9507 20.7056 21.8366 20.796C21.4036 21.148 20.9136 21.2099 20.3856 21.0386C19.5387 20.7626 19.1914 20.1013 19.0963 19.2973C18.9964 18.4267 19.2866 17.6845 20.0668 17.2278C20.7138 16.8424 21.3704 16.8758 21.965 17.3943ZM21.161 18.0841C21.2326 18.0871 21.3027 18.1004 21.3694 18.1232C21.5128 18.1695 21.6404 18.2611 21.7319 18.3887C21.9984 18.7502 21.9984 19.3449 21.7319 19.7065C21.6844 19.7683 21.632 19.8207 21.5749 19.8635C21.429 19.9714 21.2579 20.0214 21.0895 20.0177C20.9305 20.0154 20.7705 19.9651 20.6329 19.8633C20.5758 19.8205 20.5235 19.7682 20.4759 19.7064C20.357 19.5399 20.2904 19.3401 20.2808 19.1307C20.2761 18.46 20.6425 18.0556 21.161 18.0841ZM25.262 19.1593C25.2239 17.9367 26.0279 17.0232 27.1697 16.99C28.3829 16.9519 29.2677 17.7654 29.3058 18.9548C29.3439 20.1584 28.6065 21.0101 27.4695 21.1242C26.2277 21.2479 25.2429 20.3488 25.262 19.1593ZM26.4561 19.0458C26.4467 19.2834 26.5181 19.5163 26.6606 19.7112L26.662 19.713C26.6997 19.7646 26.7422 19.8115 26.7938 19.8491C26.8639 19.9043 26.9407 19.9457 27.0208 19.9735C27.1896 20.0329 27.3766 20.0332 27.5482 19.9694C27.6796 19.9218 27.7996 19.8386 27.8921 19.7216L27.8928 19.7208L27.8997 19.7116C28.0327 19.5346 28.0995 19.2969 28.1004 19.0584C28.1016 18.8458 28.0501 18.633 27.9466 18.4615C27.9315 18.4362 27.9151 18.4119 27.8976 18.3886C27.7644 18.2078 27.5551 18.0936 27.3315 18.0889C27.2944 18.0868 27.258 18.087 27.2226 18.0892C26.7816 18.117 26.4758 18.4701 26.457 18.9936C26.4564 19.0106 26.4561 19.0285 26.4561 19.0458ZM24.8433 18.2126C24.8433 18.4584 24.8438 18.7042 24.8444 18.9501C24.8455 19.4416 24.8465 19.9332 24.8433 20.4249C24.8481 20.7626 24.5816 21.0433 24.2438 21.0529C24.1867 21.0529 24.1249 21.0481 24.0678 21.0338C23.83 20.972 23.6492 20.7199 23.6492 20.4201V16.6379C23.6492 16.5631 23.6486 16.489 23.6481 16.415C23.6471 16.2675 23.646 16.1207 23.6492 15.9719C23.6539 15.6055 23.8871 15.3676 24.2391 15.3676C24.6006 15.3629 24.8433 15.6008 24.8433 15.9813C24.8465 16.4762 24.8455 16.9733 24.8444 17.4697V17.4727C24.8438 17.7196 24.8433 17.9664 24.8433 18.2126Z"
            fill="white" />
    </g>
    <defs>
        <linearGradient
            id="paint0_linear_6206_80"
            x1="20"
            y1="0"
            x2="20"
            y2="40"
            gradientUnits="userSpaceOnUse">
            <stop stop-color="#3A8BFF" />
            <stop offset="1" stop-color="#035ADA" />
        </linearGradient>
        <clipPath id="clip0_6206_80">
            <rect width="40" height="40" fill="white" />
        </clipPath>
    </defs>
</svg>